<svg width="91" height="19" fill="none" xmlns="http://www.w3.org/2000/svg"><path d="M7.492 10.882c1.981.098 2.163.197 2.087.59-.076.392-.494.49-2.294.49-1.6 0-1.982-.098-1.925-.393l.057-.294h-3l-.17.884c-.34 1.767.67 2.75 4.47 2.75 3.6 0 5.428-1.18 5.805-3.143.397-2.062-.652-2.848-4.614-3.044-1.981-.098-2.162-.197-2.087-.59.076-.392.495-.49 2.295-.49 1.6 0 1.98.098 1.924.392l-.056.295h3l.17-.884c.34-1.767-.671-2.75-4.471-2.75-3.6 0-5.427 1.179-5.805 3.143-.397 2.062.652 2.848 4.614 3.044zm12.616-3.24c1.2 0 1.887.589 1.622 1.964l-.075.392c-.265 1.375-1.178 1.964-2.378 1.964-1.6 0-1.887-.589-1.622-1.964l.075-.392c.265-1.375.778-1.964 2.378-1.964zm-.198 7.266c2.4 0 4.064-1.374 4.631-4.32l.302-1.572c.567-2.946-.568-4.32-2.968-4.32-1.9 0-2.933.687-3.54 1.767l.102-1.571h-2.8L12.992 18.64h3l1.058-5.5c.192 1.08.96 1.768 2.86 1.768zm10.592 0c3.7 0 5.421-1.67 5.97-4.517l.226-1.178c.548-2.848-.531-4.517-4.231-4.517-3.7 0-5.421 1.669-5.97 4.517l-.226 1.178c-.548 2.848.531 4.517 4.231 4.517zm.567-2.946c-1.7 0-2.024-.393-1.722-1.964l.075-.392c.303-1.572.778-1.964 2.478-1.964 1.7 0 2.025.392 1.722 1.964l-.075.392c-.302 1.572-.778 1.964-2.478 1.964zm6.263 2.75h3l.983-5.106c.283-1.473.74-1.768 2.34-1.768h2l.566-2.946h-1.4c-1.7 0-2.394.49-2.902 1.571l.102-1.571h-2.8l-1.889 9.82zm15.175-2.946h-2.2c-.6 0-.963-.197-.811-.982l.566-2.946h3.2l.567-2.946h-3.2l.378-1.964h-2.4l-1.012 2.14-1.288 6.698c-.378 1.964.433 2.946 2.433 2.946h3.2l.567-2.946zm1.04 2.946h3l.983-5.106c.246-1.277.878-1.964 2.378-1.964 1.4 0 1.887.589 1.622 1.964l-.982 5.106h3l1.096-5.696c.604-3.142-.37-4.32-2.97-4.32-1.9 0-3.132.687-3.54 1.767l1.06-5.499h-3l-2.645 13.748zm19.095-1.571l-.102 1.57h2.8l1.89-9.82h-3l-.983 5.107c-.246 1.277-.878 1.964-2.378 1.964-1.4 0-1.887-.589-1.622-1.964l.982-5.106h-3l-1.096 5.696c-.604 3.142.37 4.32 2.97 4.32 1.9 0 3.131-.687 3.54-1.767zm11.15-5.5c1.2 0 1.887.59 1.623 1.965l-.076.392c-.265 1.375-1.178 1.964-2.378 1.964-1.6 0-1.887-.589-1.622-1.964l.076-.392c.264-1.375.777-1.964 2.377-1.964zm-6.36 7.07h2.8l.502-1.57c.193 1.08.96 1.767 2.86 1.767 2.4 0 4.065-1.374 4.632-4.32l.302-1.572c.567-2.946-.569-4.32-2.969-4.32-1.9 0-2.932.687-3.54 1.767L83.077.964h-3l-2.645 13.748z" fill="#fff"/></svg>