<svg width="73" height="17" fill="none" xmlns="http://www.w3.org/2000/svg"><path d="M67.042 17C70.332 17 73 14.28 73 10.924c0-3.357-2.668-6.077-5.958-6.077s-5.959 2.72-5.959 6.077c0 3.356 2.668 6.076 5.959 6.076zM48.207 4.871c.468-1.506 1.871-2.611 3.496-2.611h6.845c.615 0 1.108-.502 1.108-1.13 0-.628-.493-1.13-1.108-1.13h-6.845c-3.25 0-5.884 2.687-5.884 6.001v1.13h11.448c-.467 1.557-1.895 2.687-3.496 2.687h-6.82c-.615 0-1.108.502-1.108 1.13 0 .628.493 1.13 1.108 1.13h6.82c3.25 0 5.885-2.737 5.885-6.077v-1.13H48.207zM38.482 0h-2.044c-3.25 0-5.909 2.687-5.909 6.001v4.972c0 .628.493 1.13 1.108 1.13.616 0 1.108-.502 1.108-1.13V7.131h9.405v3.842c0 .628.493 1.13 1.108 1.13.616 0 1.108-.502 1.108-1.13V6.001C44.366 2.687 41.732 0 38.482 0zm-5.565 4.871c.468-1.506 1.872-2.611 3.497-2.611h2.043c1.65 0 3.029 1.105 3.496 2.611h-9.036zm-3.816 1.13C29.101 2.687 26.467 0 23.217 0h-2.043c-3.25 0-5.91 2.687-5.91 6.001v4.972c0 .628.493 1.13 1.109 1.13.615 0 1.107-.502 1.107-1.13V7.131h3.964l5.86 4.721c.197.176.443.251.69.251.32 0 .64-.15.861-.426.37-.478.296-1.206-.172-1.582L25.014 7.13h4.087V6zm-11.448-1.13c.468-1.506 1.871-2.611 3.52-2.611h2.044c1.65 0 3.028 1.105 3.496 2.611h-9.06zM7.928 0h-6.82C.492 0 0 .502 0 1.13c0 .628.492 1.13 1.108 1.13h6.82c1.65 0 3.028 1.105 3.496 2.611H0v6.102c0 .628.492 1.13 1.108 1.13.615 0 1.108-.502 1.108-1.13V7.131h11.62v-1.13C13.837 2.687 11.179 0 7.929 0z" fill="#fff"/></svg>